# xmcd CD database file
#
# Track frame offsets:
#	183
#	17665
#	47668
#	71235
#
# Disc length: 1270 seconds
#
# Revision: 2
# Processed by: cddbd v1.4PL0 Copyright (c) Steve Scherf et al.
# Submitted via: CDex 1.50beta8
#
DISCID=3004f404
DTITLE=Yazz - One true woman [CD Single)
DYEAR=1992
DGENRE=Pop
TTITLE0=One true woman
TTITLE1=One true woman (True 2 U Mix)
TTITLE2=One true woman (True Underground Mix)
TTITLE3=Changeing times
EXTD=YEAR: 1992
EXTT0=
EXTT1=
EXTT2=
EXTT3=
PLAYORDER=
